<svg width="24" height="25" viewBox="0 0 24 25" fill="none" xmlns="http://www.w3.org/2000/svg">
<path fill-rule="evenodd" clip-rule="evenodd" d="M12.5889 4.65624C12.2697 4.31671 11.7303 4.31671 11.4111 4.65624L3.25438 13.7831C3.09056 13.9664 3 14.2037 3 14.4495V21.0423C3 21.759 3.576 22.3406 4.28571 22.3406H8.14286C8.85257 22.3406 9.42857 21.759 9.42857 21.0423V15.849C9.42857 15.1324 10.0046 14.5507 10.7143 14.5507H13.2857C13.9954 14.5507 14.5714 15.1324 14.5714 15.849V21.0423C14.5714 21.759 15.1474 22.3406 15.8571 22.3406H19.7143C20.424 22.3406 21 21.759 21 21.0423V14.4495C21 14.2037 20.9094 13.9664 20.7456 13.7831L12.5889 4.65624Z" fill="#ECEBFA"/>
</svg>
