<svg width="24" height="25" viewBox="0 0 24 25" fill="none" xmlns="http://www.w3.org/2000/svg">
<path fill-rule="evenodd" clip-rule="evenodd" d="M18.6333 16.0557C19.3329 16.0557 19.9 16.6047 19.9 17.2819V19.1212C19.9 19.7984 19.3329 20.3474 18.6333 20.3474H9.76667C9.06711 20.3474 8.5 19.7984 8.5 19.1212V17.2819C8.5 16.6047 9.06711 16.0557 9.76667 16.0557H18.6333ZM5.125 16.0557C6.2986 16.0557 7.25 17.0164 7.25 18.2016C7.25 19.3867 6.2986 20.3474 5.125 20.3474C3.95139 20.3474 3 19.3867 3 18.2016C3 17.0164 3.95139 16.0557 5.125 16.0557ZM18.6333 10.0474C19.3329 10.0474 19.9 10.5964 19.9 11.2736V13.1129C19.9 13.7901 19.3329 14.3391 18.6333 14.3391H9.76667C9.06711 14.3391 8.5 13.7901 8.5 13.1129V11.2736C8.5 10.5964 9.06711 10.0474 9.76667 10.0474H18.6333ZM5.125 10.0474C6.2986 10.0474 7.25 11.0081 7.25 12.1932C7.25 13.3783 6.2986 14.3391 5.125 14.3391C3.95139 14.3391 3 13.3783 3 12.1932C3 11.0081 3.95139 10.0474 5.125 10.0474ZM5.125 4.03906C6.2986 4.03906 7.25 4.99978 7.25 6.1849C7.25 7.37001 6.2986 8.33073 5.125 8.33073C3.95139 8.33073 3 7.37001 3 6.1849C3 4.99978 3.95139 4.03906 5.125 4.03906ZM18.6333 4.03906C19.3329 4.03906 19.9 4.58805 19.9 5.26525V7.10454C19.9 7.78174 19.3329 8.33073 18.6333 8.33073H9.76667C9.06711 8.33073 8.5 7.78174 8.5 7.10454V5.26525C8.5 4.58805 9.06711 4.03906 9.76667 4.03906H18.6333Z" fill="#D6D9E0"/>
</svg>
