<svg width="24" height="24" viewBox="0 0 24 24" fill="none" xmlns="http://www.w3.org/2000/svg">
<rect opacity="0.01" width="24" height="24" fill="#D6D9E0"/>
<path fill-rule="evenodd" clip-rule="evenodd" d="M11.8282 1.50549C10.9753 1.56008 10.2181 2.0184 9.76719 2.70819L9.69 2.835L9.66667 2.835C8.99462 2.78836 8.27137 3.06032 7.74834 3.58335C7.36088 3.97081 7.1112 4.46815 7.02765 5H5.66667L5.52286 5.00612C4.66971 5.07903 4 5.79464 4 6.66667V20.3333L4.00612 20.4771C4.07903 21.3303 4.79464 22 5.66667 22H18.3333L18.4771 21.9939C19.3303 21.921 20 21.2054 20 20.3333V6.66667L19.9939 6.52286C19.921 5.66971 19.2054 5 18.3333 5H16.9685C16.8816 4.48359 16.6292 3.98436 16.2399 3.59508L16.0949 3.46067C15.6463 3.07555 15.0794 2.85477 14.4885 2.835L14.309 2.835L14.2328 2.70819C13.7519 1.97242 12.9223 1.5 12 1.5L11.8282 1.50549ZM8 11.5C8 10.9477 8.44772 10.5 9 10.5H15C15.5523 10.5 16 10.9477 16 11.5C16 12.0523 15.5523 12.5 15 12.5H9C8.44772 12.5 8 12.0523 8 11.5ZM9 14.5C8.44772 14.5 8 14.9477 8 15.5C8 16.0523 8.44772 16.5 9 16.5H11C11.5523 16.5 12 16.0523 12 15.5C12 14.9477 11.5523 14.5 11 14.5H9ZM13.1433 3.9345C13.0329 3.39076 12.5548 3 12 3C11.4452 3 10.9671 3.39076 10.8567 3.9345C10.8093 4.16754 10.6045 4.335 10.3667 4.335L9.50281 4.33329C9.24276 4.34804 8.99531 4.4577 8.809 4.64401C8.59164 4.86137 8.47862 5.16194 8.5 5.50167V6.001H15.499L15.5005 5.48038C15.5117 5.21662 15.4277 4.95917 15.2663 4.75384L15.1793 4.65574C14.9615 4.43794 14.6623 4.32144 14.3333 4.335H13.6333C13.3955 4.335 13.1907 4.16754 13.1433 3.9345Z" fill="#D6D9E0"/>
</svg>
